<svg width="171" height="88" viewBox="0 0 171 88" fill="none" xmlns="http://www.w3.org/2000/svg">
<path d="M43.6196 41.3905V26.9952C47.0017 26.3882 46.7414 22.746 46.7414 22.746C45.8742 25.6944 43.4462 24.5672 43.4462 24.5672L31.8259 19.1907C31.8259 19.1907 29.3112 22.5728 27.7501 24.7408C27.4031 24.6541 15.5227 19.1907 15.5227 19.1907C15.5227 19.1907 13.0947 22.4861 11.5336 24.5672C9.97267 24.5672 6.59058 22.2258 4.59601 19.3641L0 26.3017C0.867145 27.7759 3.12181 28.383 3.12181 28.383V28.9033V41.3907C3.12181 42.6916 2.25466 43.8188 0.953837 44.1658V44.2525C2.25466 44.5994 3.12181 45.7267 3.12181 47.0275V66.3658L8.32487 71.2221C9.19202 67.84 15.2624 63.6775 15.2624 62.4635L14.5687 63.0706C13.6148 63.851 12.314 63.851 11.3602 62.9839L11.0134 62.6371V26.4755L19.4252 30.1177V41.3912C19.4252 42.692 18.558 43.8192 17.2572 44.1662V44.2529C18.558 44.5999 19.4252 45.7271 19.4252 47.0279V66.3662L24.6283 71.2225C25.4954 67.8404 31.5658 63.6779 31.5658 62.4639L30.8721 63.071C29.9182 63.8514 28.6174 63.8514 27.6636 62.9843L27.3168 62.6375V59.6014V26.4749L35.7286 30.117C35.7286 30.117 35.7286 54.6584 35.7286 65.4115C35.7286 75.8179 28.791 76.1647 28.791 76.1647C31.6527 76.1647 43.62 73.4763 43.62 62.7232V47.0271C43.62 45.7263 44.4871 44.599 45.7012 44.2521C44.4867 43.9055 43.6196 42.6914 43.6196 41.3905Z" fill="white"/>
<path d="M75.5286 41.5639V27.0819C78.9974 26.4749 78.6504 22.9194 78.6504 22.9194C77.8699 25.8678 75.355 24.7406 75.4419 24.7406L74.7481 24.4805L63.0412 19.9712L62.4341 19.6242C62.4341 19.7109 60.1794 27.9493 51.3342 28.8164V41.5641C51.3342 42.8649 50.4671 43.9922 49.2529 44.3391H49.1662C50.467 44.6859 51.3342 45.8133 51.3342 47.1142V63.6774C47.9521 64.3712 48.2124 67.9267 48.2124 67.9267C48.9928 64.9782 51.5078 66.1055 51.4209 66.1055L52.1146 66.3656L63.8216 70.8749L64.4287 71.135C64.4287 71.135 66.6833 62.8968 75.5288 62.0294V47.1138C75.5288 45.8129 76.3959 44.6857 77.6967 44.3387H77.61C76.3957 43.9922 75.5286 42.8647 75.5286 41.5639ZM67.6372 63.8506L59.2254 60.6421V26.9952L67.6372 30.2037V63.8506Z" fill="white"/>
<path d="M94.6043 63.0701C93.6505 63.8506 92.263 63.7639 91.3958 62.9834L91.0489 62.6367V47.0272C91.0489 45.7264 91.916 44.5123 93.1301 44.1655C91.916 43.8187 91.0489 42.6913 91.0489 41.3905V8.26396C92.3497 7.48351 93.2168 6.00931 93.2168 6.00931C93.2168 6.00931 90.5285 8.00388 84.6317 1.76007L80.0356 8.69764C80.9028 10.1718 83.1575 10.7789 83.1575 10.7789V35.6673V41.3907C83.1575 42.6915 82.2903 43.8187 80.9895 44.1657V44.2524C82.2903 44.5125 83.1575 45.7266 83.1575 47.0274V66.3657L88.2738 71.222C89.2277 67.8399 95.2981 63.6774 95.2981 62.4635L94.6043 63.0701Z" fill="white"/>
<path d="M111.166 63.0701C110.212 63.8506 108.825 63.7639 107.957 62.9834L107.611 62.6367V47.0272C107.611 45.7264 108.478 44.5123 109.692 44.1655C108.478 43.8187 107.611 42.6913 107.611 41.3905V8.26396C108.912 7.48351 109.779 6.00931 109.779 6.00931C109.779 6.00931 107.09 8.00388 101.193 1.76007L96.5975 8.69764C97.4646 10.1718 99.7193 10.7789 99.7193 10.7789V35.6673V41.3907C99.7193 42.6915 98.8521 43.8187 97.5513 44.1657V44.2524C98.8521 44.5125 99.7193 45.7266 99.7193 47.0274V66.3657L104.836 71.222C105.79 67.8399 111.86 63.6774 111.86 62.4635L111.166 63.0701Z" fill="white"/>
<path d="M143.424 41.5639V26.2148C144.725 25.4343 145.679 23.9601 145.679 23.9601C145.679 23.9601 142.904 25.9547 137.007 19.7109L132.411 26.6484C133.278 28.1226 135.533 28.7297 135.533 28.7297V63.8508L127.121 60.6423V26.2148C128.422 25.4343 129.375 23.9601 129.375 23.9601C129.375 23.9601 126.6 25.9547 120.704 19.7109L116.108 26.6484C116.975 28.1226 119.229 28.7297 119.229 28.7297V41.5641C119.229 42.8649 118.362 43.9922 117.148 44.3391L117.061 44.4258C118.362 44.7726 119.229 45.9 119.229 47.2009V63.7641C115.847 64.3712 116.108 68.0133 116.108 68.0133C116.888 65.0649 119.403 66.1924 119.316 66.1924L120.01 66.3657L131.717 70.8751L132.324 71.222C132.324 71.1354 133.104 68.3603 135.532 65.8454V80.6744C135.532 80.6744 127.814 75.7314 121.657 75.7314C116.801 75.7314 113.159 85.2704 113.159 85.2704C117.235 78.6798 132.324 87.9587 132.324 87.9587C132.324 87.9587 134.578 79.7203 143.424 78.8532V47.2007C143.424 45.8998 144.291 44.6859 145.592 44.4256L145.505 44.3389C144.291 43.9922 143.424 42.8647 143.424 41.5639Z" fill="white"/>
<path d="M120.137 16.5689H124.477V6.15409H124.891L131.953 16.5689H136.983V0H132.643V10.4148H132.248L125.286 0H120.137V16.5689Z" fill="#C145DF"/>
<path d="M138.556 16.569H143.014V10.3556H152.304V7.06162H143.014V3.70836H152.817V6.10352e-05H138.556V16.569H138.556Z" fill="#C145DF"/>
<path d="M171 6.10352e-05H154.293V3.70836H160.428V16.569H164.866V3.70836H171V6.10352e-05Z" fill="#C145DF"/>
</svg>
