<svg width="24" height="18" viewBox="0 0 24 18" fill="none" xmlns="http://www.w3.org/2000/svg"><path d="M20.3483 1.52022C20.3416 1.5075 20.3305 1.49753 20.3171 1.4921C18.761 0.78932 17.1189 0.288182 15.4319 0.00122921C15.4166 -0.0015757 15.4008 0.000447799 15.3867 0.00701192C15.3726 0.013576 15.361 0.0243466 15.3534 0.0377918C15.1298 0.437284 14.9269 0.847628 14.7453 1.26726C12.9268 0.995524 11.077 0.995524 9.25848 1.26726C9.07569 0.846563 8.86946 0.436116 8.64072 0.0377918C8.63287 0.0246388 8.62119 0.0141163 8.60718 0.0075948C8.59317 0.00107332 8.57749 -0.00114488 8.56219 0.00122921C6.87499 0.28758 5.2328 0.788755 3.67695 1.49214C3.66363 1.4977 3.65239 1.50719 3.64478 1.5193C0.533384 6.09316 -0.318946 10.5546 0.0991784 14.9607C0.100355 14.9715 0.103725 14.982 0.109089 14.9915C0.114453 15.001 0.121702 15.0093 0.130403 15.016C1.94214 16.3365 3.96859 17.3444 6.12328 17.9968C6.13845 18.0013 6.15466 18.0011 6.16971 17.9962C6.18477 17.9913 6.19795 17.9821 6.20749 17.9696C6.67027 17.3498 7.08032 16.6934 7.43349 16.0072C7.43834 15.9978 7.44111 15.9875 7.44162 15.9769C7.44213 15.9664 7.44035 15.9558 7.43643 15.946C7.4325 15.9362 7.4265 15.9273 7.41882 15.9199C7.41115 15.9126 7.40197 15.9069 7.3919 15.9032C6.74527 15.6597 6.11925 15.3661 5.51973 15.0252C5.50884 15.0189 5.49969 15.0101 5.4931 14.9995C5.4865 14.9888 5.48266 14.9768 5.48191 14.9644C5.48117 14.952 5.48354 14.9396 5.48882 14.9283C5.49409 14.917 5.50212 14.9071 5.51218 14.8996C5.63797 14.8068 5.76385 14.7103 5.88397 14.6129C5.89465 14.6042 5.90756 14.5987 5.92126 14.5968C5.93496 14.595 5.94891 14.597 5.96153 14.6026C9.88925 16.3671 14.1416 16.3671 18.0228 14.6026C18.0354 14.5966 18.0495 14.5944 18.0634 14.596C18.0773 14.5977 18.0905 14.6032 18.1013 14.6119C18.2215 14.7094 18.3473 14.8068 18.4741 14.8996C18.4842 14.9071 18.4923 14.9168 18.4976 14.9281C18.503 14.9393 18.5055 14.9517 18.5048 14.9641C18.5041 14.9766 18.5004 14.9886 18.4939 14.9993C18.4874 15.0099 18.4783 15.0188 18.4674 15.0252C17.8693 15.369 17.2427 15.6624 16.5944 15.9023C16.5843 15.9061 16.5752 15.9119 16.5675 15.9194C16.5599 15.9269 16.554 15.9359 16.5501 15.9458C16.5463 15.9557 16.5446 15.9663 16.5452 15.9769C16.5458 15.9874 16.5486 15.9978 16.5536 16.0072C16.9126 16.6896 17.3221 17.3451 17.7786 17.9685C17.7879 17.9813 17.801 17.9909 17.8161 17.996C17.8312 18.001 17.8476 18.0013 17.8628 17.9967C20.0214 17.3465 22.0514 16.3385 23.8654 15.016C23.8742 15.0096 23.8816 15.0015 23.887 14.9921C23.8923 14.9828 23.8956 14.9724 23.8966 14.9616C24.3972 9.86767 23.0586 5.44283 20.3483 1.52022ZM8.02006 12.2778C6.83753 12.2778 5.86316 11.2096 5.86316 9.89768C5.86316 8.58577 6.81863 7.51746 8.02006 7.51746C9.23088 7.51746 10.1958 8.59505 10.1769 9.8976C10.1769 11.2096 9.22141 12.2778 8.02006 12.2778ZM15.9948 12.2778C14.8123 12.2778 13.8379 11.2096 13.8379 9.89768C13.8379 8.58577 14.7934 7.51746 15.9948 7.51746C17.2057 7.51746 18.1706 8.59505 18.1517 9.8976C18.1517 11.2096 17.2057 12.2778 15.9948 12.2778Z" fill="#E498EF" fill-opacity="0.8"/></svg>