<svg width="23" height="23" viewBox="0 0 23 23" fill="none" xmlns="http://www.w3.org/2000/svg"><path d="M11.5 0C5.14901 0 0 5.14901 0 11.5C0 17.851 5.14901 23 11.5 23C17.851 23 23 17.851 23 11.5C23 5.14901 17.851 0 11.5 0ZM5.67203 11.8866L5.72076 11.8086L8.71271 7.1274C8.75494 7.05918 8.8589 7.06568 8.89139 7.1404C9.39167 8.26116 9.82373 9.6548 9.61907 10.5222C9.53136 10.8795 9.29746 11.3636 9.03107 11.8086C8.99534 11.8736 8.9596 11.9386 8.91737 12.0003C8.89788 12.0295 8.8654 12.0458 8.83291 12.0458H5.7565C5.67853 12.0425 5.6298 11.9548 5.67203 11.8866ZM19.0075 13.4979C19.0075 13.5401 18.9815 13.5791 18.9425 13.5953C18.7119 13.696 17.9192 14.0599 17.5879 14.5179C16.7465 15.6874 16.1032 17.3637 14.6674 17.3637H8.67698C6.5524 17.3637 4.83065 15.6355 4.83065 13.5044V13.4362C4.83065 13.3809 4.87613 13.3322 4.9346 13.3322H8.2774C8.34237 13.3322 8.3911 13.3939 8.3846 13.4589C8.36186 13.6766 8.40085 13.8975 8.5048 14.0989C8.70297 14.5017 9.11554 14.7551 9.55735 14.7551H11.2109V13.4621H9.57684C9.49237 13.4621 9.44364 13.3647 9.49237 13.2965C9.50862 13.2705 9.53136 13.2412 9.55085 13.2088C9.70678 12.9879 9.92768 12.6468 10.1453 12.2602C10.2948 11.997 10.441 11.7177 10.5579 11.4383C10.5807 11.3863 10.6001 11.3343 10.6196 11.2856C10.6521 11.1946 10.6846 11.1134 10.7073 11.029C10.7301 10.9575 10.7496 10.8828 10.7691 10.8145C10.8243 10.5774 10.847 10.324 10.847 10.0609C10.847 9.95692 10.8438 9.84972 10.834 9.74901C10.8308 9.63531 10.8145 9.52486 10.8016 9.41116C10.7918 9.31045 10.7756 9.21299 10.7561 9.11229C10.7333 8.96285 10.7008 8.81342 10.6619 8.66398L10.6489 8.60876C10.6196 8.5048 10.5969 8.40734 10.5644 8.30664C10.4702 7.98503 10.363 7.66992 10.2493 7.37429C10.2071 7.25734 10.1616 7.14364 10.1129 7.03319C10.0446 6.86427 9.97316 6.71158 9.90819 6.5654C9.87571 6.50042 9.84647 6.4387 9.81723 6.37698C9.78475 6.30876 9.75226 6.23729 9.71977 6.17232C9.69703 6.12034 9.6678 6.07486 9.65155 6.02613L9.45014 5.65254C9.4209 5.60056 9.46963 5.54209 9.52486 5.55833L10.7886 5.89944H10.7918C10.7951 5.89944 10.7951 5.89944 10.7951 5.89944L10.9607 5.94492L11.1427 5.99689L11.2109 6.01638V5.26596C11.2109 4.90212 11.5 4.60975 11.8606 4.60975C12.0393 4.60975 12.2017 4.68446 12.3186 4.80141C12.4356 4.92161 12.5103 5.08404 12.5103 5.26596V6.38023L12.6435 6.41921C12.6532 6.42246 12.6662 6.42896 12.6727 6.43545C12.7052 6.46144 12.754 6.49718 12.8124 6.54266C12.8612 6.58164 12.9099 6.62712 12.9716 6.6726C13.0918 6.77006 13.238 6.89675 13.3972 7.04294C13.4394 7.07867 13.4816 7.11766 13.5174 7.15664C13.722 7.34831 13.9527 7.57246 14.1736 7.81935C14.2353 7.88757 14.2938 7.95904 14.3555 8.03376C14.4172 8.10847 14.4822 8.18319 14.5374 8.25791C14.6121 8.35862 14.6934 8.45932 14.7616 8.56653C14.7941 8.6185 14.8331 8.67048 14.8655 8.71921C14.9565 8.85565 15.0345 8.99534 15.1092 9.13503C15.1417 9.2 15.1742 9.27147 15.2034 9.33969C15.2879 9.52811 15.3528 9.71977 15.3951 9.91144C15.4081 9.95367 15.4178 9.99915 15.421 10.0381V10.0479C15.434 10.1031 15.4405 10.1648 15.4438 10.2266C15.4633 10.4215 15.4535 10.6196 15.4113 10.8145C15.3951 10.899 15.3691 10.977 15.3431 11.0614C15.3138 11.1427 15.2879 11.2271 15.2489 11.3051C15.1774 11.4708 15.0929 11.6332 14.9955 11.7859C14.963 11.8411 14.9273 11.9028 14.8883 11.9581C14.846 12.0198 14.8038 12.075 14.7681 12.1302C14.7161 12.2017 14.6609 12.2764 14.6024 12.3414C14.5504 12.4096 14.4984 12.4811 14.4432 12.5428C14.3653 12.637 14.2873 12.7247 14.2093 12.8092C14.1606 12.8644 14.1119 12.9229 14.0599 12.9716C14.0079 13.0268 13.9559 13.0788 13.9105 13.1275C13.8325 13.2055 13.7643 13.2672 13.709 13.3192L13.5791 13.4394C13.5596 13.4557 13.5369 13.4654 13.5109 13.4654H12.5038V14.7583H13.7708C14.0534 14.7583 14.323 14.6576 14.5407 14.4725C14.6154 14.4075 14.9403 14.1249 15.3236 13.7025C15.3366 13.6895 15.3528 13.6766 15.3723 13.6733L18.871 12.663C18.936 12.6435 19.001 12.6922 19.001 12.7637V13.4979H19.0075Z" fill="#E498EF" fill-opacity="0.8"/></svg>