<svg width="21" height="21" viewBox="0 0 21 21" fill="none" xmlns="http://www.w3.org/2000/svg"><path d="M18.375 1.3125C19.101 1.3125 19.6875 1.90025 19.6875 2.625C19.6875 3.34975 19.101 3.9375 18.375 3.9375H3.28125C2.91867 3.9375 2.625 4.23281 2.625 4.59375C2.625 4.95469 2.91867 5.25 3.28125 5.25H18.375C19.8229 5.25 21 6.42715 21 7.875V17.0625C21 18.5104 19.8229 19.6875 18.375 19.6875H2.625C1.1751 19.6875 0 18.5104 0 17.0625V3.9375C0 2.4876 1.1751 1.3125 2.625 1.3125H18.375ZM17.0625 13.7812C17.7885 13.7812 18.375 13.1947 18.375 12.4688C18.375 11.7428 17.7885 11.1562 17.0625 11.1562C16.3365 11.1562 15.75 11.7428 15.75 12.4688C15.75 13.1947 16.3365 13.7812 17.0625 13.7812Z" fill="#E498EF" fill-opacity="0.8"/></svg>
